# xmcd
#
# Track frame offsets:
#	180
#	9261
#	24327
#	37323
#	52302
#	71343
#	85067
#	99500
#	113936
#	127049
#	141744
#	158724
#	172818
#	185798
#	198547
#	212022
#
# Disc length: 3011 seconds
#
# Revision: 0
# Processed by: cddbd v1.5.1PL0 Copyright (c) Steve Scherf et al.
# Submitted via: audiograbber 1.83.01
#
DISCID=e80bc110
DTITLE=Serie 32 Tom Jones and Engelbert Humperdinck - 32 Grandes Exitos de Tom Jo
DTITLE=nes and Engelbert Humperdinck CD 1
DYEAR=1900
DGENRE=Ballad
TTITLE0=Tom Jones - It's not Unusual
TTITLE1=Engelbert Humperdinck - A Man without Love
TTITLE2=Tom Jones - Help Yourself
TTITLE3=Engelbert Humperdinck - Release Me
TTITLE4=Tom Jones - (it looks like) I'll never fall in love again
TTITLE5=Engelbert Humperdinck - The last waltz
TTITLE6=Tom Jones - Love Me Tonigth
TTITLE7=Engelbert Humperdinck - Les Bicyclettes de Belsize
TTITLE8=Tom Jones - She's a Lady
TTITLE9=Engelbert Humperdinck - Spanish Eyes
TTITLE10=Tom Jones - Without Love
TTITLE11=Engelbert Humperdinck - Am I that easy to forget
TTITLE12=Tom Jones - Thunderball
TTITLE13=Engelbert Humperdinck - I'm a better man
TTITLE14=Tom Jones - I (who have nothing)
TTITLE15=Engelbert Humperdinck - By the time I get to Phoenix
EXTD=
EXTT0=
EXTT1=
EXTT2=
EXTT3=
EXTT4=
EXTT5=
EXTT6=
EXTT7=
EXTT8=
EXTT9=
EXTT10=
EXTT11=
EXTT12=
EXTT13=
EXTT14=
EXTT15=
PLAYORDER=
